#define matkhaudaduocthaydoi_width 128
#define matkhaudaduocthaydoi_height 64
static unsigned char matkhaudaduocthaydoi_bits[] = {
   0xff, 0xff, 0xff, 0xff, 0xff, 0xff, 0xff, 0xff, 0xff, 0xff, 0xff, 0xff,
   0xff, 0xff, 0xff, 0xff, 0x01, 0x00, 0x00, 0x00, 0x00, 0x00, 0x00, 0x00,
   0x00, 0x00, 0x00, 0x00, 0x00, 0x00, 0x00, 0x80, 0x01, 0x00, 0x00, 0x00,
   0x00, 0x00, 0x00, 0x00, 0x00, 0x00, 0x00, 0x00, 0x00, 0x00, 0x00, 0x80,
   0x01, 0x00, 0x00, 0x00, 0x00, 0x00, 0x00, 0x00, 0x00, 0x00, 0x00, 0x00,
   0x00, 0x00, 0x00, 0x80, 0x01, 0x00, 0x00, 0x00, 0x00, 0x00, 0x00, 0x00,
   0x00, 0x00, 0x00, 0x00, 0x00, 0x00, 0x00, 0x80, 0x01, 0x00, 0x00, 0x00,
   0x00, 0x00, 0x00, 0x00, 0x00, 0x00, 0x00, 0x00, 0x00, 0x00, 0x00, 0x80,
   0x01, 0x00, 0x00, 0x00, 0x00, 0x00, 0x00, 0x00, 0x00, 0x00, 0x00, 0x00,
   0x00, 0x00, 0x00, 0x80, 0x01, 0x00, 0x00, 0x00, 0x00, 0x00, 0x00, 0x00,
   0x00, 0x00, 0x00, 0x00, 0x00, 0x00, 0x00, 0x80, 0x01, 0x00, 0x00, 0x00,
   0x00, 0x00, 0x00, 0x00, 0x00, 0x00, 0x00, 0x00, 0x00, 0x00, 0x00, 0x80,
   0x01, 0x00, 0x00, 0x00, 0x00, 0x00, 0x00, 0x00, 0x00, 0x00, 0xe0, 0x00,
   0x00, 0x00, 0x00, 0x80, 0x01, 0x00, 0x00, 0x00, 0x00, 0x00, 0x00, 0x00,
   0x00, 0x00, 0x80, 0x00, 0x00, 0x00, 0x00, 0x80, 0x01, 0x00, 0x00, 0x00,
   0x00, 0x00, 0x00, 0x00, 0x00, 0x00, 0x40, 0x00, 0x00, 0x00, 0x00, 0x80,
   0x01, 0x00, 0x00, 0x00, 0x00, 0x70, 0x00, 0x00, 0x00, 0x00, 0x1c, 0x00,
   0x00, 0x00, 0x00, 0x80, 0x01, 0x00, 0x00, 0x00, 0x00, 0xf8, 0x00, 0x00,
   0x00, 0x00, 0x3e, 0x00, 0x00, 0x00, 0x00, 0x80, 0x01, 0x00, 0x00, 0x00,
   0x00, 0x00, 0x00, 0x00, 0x00, 0x00, 0x00, 0x00, 0x00, 0x00, 0x00, 0x80,
   0x01, 0x00, 0x00, 0xc0, 0xf3, 0x70, 0xf8, 0xc1, 0xdc, 0x39, 0x1c, 0xc6,
   0x00, 0x00, 0x00, 0x80, 0x01, 0x00, 0x00, 0xc0, 0xf3, 0x70, 0xf8, 0xc1,
   0xcc, 0x39, 0x3e, 0xc6, 0x00, 0x00, 0x00, 0x80, 0x01, 0x00, 0x00, 0xc0,
   0xf3, 0xf8, 0x60, 0xc0, 0xc6, 0x39, 0x3e, 0xc6, 0x00, 0x00, 0x00, 0x80,
   0x01, 0x00, 0x00, 0xc0, 0xd2, 0xd8, 0x60, 0xc0, 0xc7, 0x3f, 0x36, 0xc6,
   0x00, 0x00, 0x00, 0x80, 0x01, 0x00, 0x00, 0xc0, 0xd2, 0x8c, 0x61, 0xc0,
   0xc7, 0x3f, 0x63, 0xc6, 0x00, 0x00, 0x00, 0x80, 0x01, 0x00, 0x00, 0xc0,
   0xde, 0xdc, 0x61, 0xc0, 0xc7, 0x3f, 0x7f, 0xc6, 0x00, 0x00, 0x00, 0x80,
   0x01, 0x00, 0x00, 0xc0, 0xde, 0xfc, 0x61, 0xc0, 0xce, 0x39, 0x7f, 0xfe,
   0x00, 0x00, 0x00, 0x80, 0x01, 0x00, 0x00, 0xc0, 0xcc, 0x8c, 0x61, 0xc0,
   0xcc, 0x39, 0x63, 0x7c, 0x00, 0x00, 0x00, 0x80, 0x01, 0x00, 0x00, 0xc0,
   0xcc, 0x8e, 0x63, 0xc0, 0xdc, 0xb9, 0xe3, 0x38, 0x00, 0x00, 0x00, 0x80,
   0x01, 0x00, 0x00, 0x00, 0x00, 0x00, 0x00, 0x00, 0x00, 0x00, 0x00, 0x00,
   0x00, 0x00, 0x30, 0x80, 0x01, 0x00, 0x00, 0x00, 0x00, 0x70, 0x00, 0x00,
   0x00, 0x00, 0x00, 0x00, 0x00, 0x00, 0x40, 0x80, 0x01, 0x00, 0x00, 0x00,
   0x00, 0x70, 0x00, 0x00, 0x00, 0x00, 0x00, 0x00, 0x00, 0x00, 0x20, 0x80,
   0x01, 0x80, 0x05, 0x00, 0x00, 0x00, 0x00, 0x00, 0x00, 0x00, 0x00, 0x00,
   0x00, 0x00, 0x0e, 0x80, 0x01, 0x40, 0x03, 0x00, 0x00, 0x02, 0x02, 0x00,
   0x00, 0x00, 0x00, 0x00, 0x00, 0x00, 0x1f, 0x80, 0x01, 0x00, 0x00, 0x00,
   0x00, 0x04, 0x04, 0x00, 0x00, 0x00, 0x00, 0x00, 0x00, 0x00, 0x00, 0x80,
   0xf1, 0x81, 0x03, 0x3e, 0x8c, 0xc3, 0x85, 0x03, 0x3f, 0xc3, 0x70, 0x9c,
   0xc3, 0x07, 0x0e, 0x83, 0xf1, 0x83, 0x03, 0x7e, 0x8c, 0xe1, 0xc3, 0x07,
   0x3f, 0xc3, 0x70, 0x98, 0xc1, 0x0f, 0x1f, 0x83, 0x31, 0xc6, 0x07, 0xc6,
   0x8c, 0x31, 0xe6, 0x00, 0x0c, 0xc3, 0xd8, 0x90, 0xc0, 0x98, 0x31, 0x83,
   0x79, 0xc6, 0x06, 0xcf, 0x8c, 0x31, 0xe6, 0x00, 0x0c, 0xff, 0xd8, 0xf0,
   0xe0, 0x99, 0x31, 0x83, 0x79, 0x66, 0x0c, 0xcf, 0x8c, 0x31, 0xe6, 0x00,
   0x0c, 0xff, 0x8c, 0xf1, 0xe0, 0x99, 0x31, 0x83, 0x31, 0xe6, 0x0f, 0xc6,
   0x8c, 0x31, 0xe6, 0x00, 0x0c, 0xc3, 0xfc, 0x61, 0xc0, 0x98, 0x31, 0x83,
   0x31, 0xe6, 0x0f, 0xc6, 0x8c, 0x31, 0xe6, 0x00, 0x0c, 0xc3, 0xfc, 0x61,
   0xc0, 0x98, 0x31, 0x83, 0xf1, 0x63, 0x0c, 0x7e, 0xf8, 0xe0, 0xc3, 0x07,
   0x0c, 0xc3, 0x8c, 0x61, 0xc0, 0x0f, 0x1f, 0x83, 0xf1, 0x71, 0x1c, 0x3e,
   0x70, 0xc0, 0x81, 0x03, 0x0c, 0xc3, 0x8e, 0x63, 0xc0, 0x07, 0x0e, 0x83,
   0x01, 0x00, 0x00, 0x00, 0x00, 0x00, 0x00, 0x00, 0x00, 0x00, 0x00, 0x00,
   0x00, 0x00, 0x00, 0x80, 0x01, 0x00, 0x00, 0x00, 0x00, 0xc0, 0x01, 0x00,
   0x00, 0x00, 0x00, 0x00, 0x00, 0x00, 0x00, 0x80, 0x01, 0x00, 0x00, 0x00,
   0x00, 0xc0, 0x01, 0x00, 0x00, 0x00, 0x00, 0x00, 0x00, 0x00, 0x00, 0x80,
   0x01, 0x00, 0x00, 0x00, 0x00, 0x00, 0x00, 0x00, 0x00, 0x00, 0x00, 0x00,
   0x00, 0x00, 0x00, 0x80, 0x01, 0x00, 0x00, 0x00, 0x00, 0x00, 0x00, 0x00,
   0x00, 0x00, 0x00, 0x00, 0x00, 0x00, 0x00, 0x80, 0x01, 0x00, 0x00, 0x00,
   0x00, 0x00, 0x00, 0x00, 0x00, 0x00, 0x00, 0x00, 0x00, 0x00, 0x00, 0x80,
   0x01, 0x00, 0x00, 0x00, 0x00, 0x00, 0x00, 0x00, 0x00, 0x00, 0x00, 0x00,
   0x00, 0x00, 0x00, 0x80, 0x01, 0x00, 0x00, 0x00, 0x00, 0x00, 0x00, 0x00,
   0x00, 0x00, 0x00, 0x00, 0x00, 0x00, 0x00, 0x80, 0x01, 0x00, 0x00, 0x00,
   0x00, 0x00, 0x00, 0x00, 0x00, 0x00, 0x00, 0x00, 0x00, 0x00, 0x00, 0x80,
   0x01, 0x00, 0x00, 0x00, 0x00, 0x00, 0x00, 0x00, 0x00, 0x00, 0x00, 0x00,
   0x00, 0x00, 0x00, 0x80, 0x01, 0x00, 0x00, 0x00, 0x00, 0x00, 0x00, 0x00,
   0x00, 0x00, 0x00, 0x00, 0x00, 0x00, 0x00, 0x80, 0x01, 0x00, 0x00, 0x00,
   0x00, 0x00, 0x00, 0x00, 0x00, 0x00, 0x00, 0x00, 0x00, 0x00, 0x00, 0x80,
   0x01, 0x00, 0x00, 0x00, 0x00, 0x00, 0x00, 0x00, 0x00, 0x00, 0x00, 0x00,
   0x00, 0x00, 0x00, 0x80, 0x01, 0x00, 0x00, 0x00, 0x00, 0x00, 0x00, 0x00,
   0x00, 0x00, 0x00, 0x00, 0x00, 0x00, 0x00, 0x80, 0x01, 0x00, 0x00, 0x00,
   0x00, 0x00, 0x00, 0x00, 0x00, 0x00, 0x00, 0x00, 0x00, 0x00, 0x00, 0x80,
   0x01, 0x00, 0x00, 0x00, 0x00, 0x00, 0x00, 0x00, 0x00, 0x00, 0x00, 0x00,
   0x00, 0x00, 0x00, 0x80, 0x01, 0x00, 0x00, 0x00, 0x00, 0x00, 0x00, 0x00,
   0x00, 0x00, 0x00, 0x00, 0x00, 0x00, 0x00, 0x80, 0x01, 0x00, 0x00, 0x00,
   0x00, 0x00, 0x00, 0x00, 0x00, 0x00, 0x00, 0x00, 0x00, 0x00, 0x00, 0x80,
   0x01, 0x00, 0x00, 0x00, 0x00, 0x00, 0x00, 0x00, 0x00, 0x00, 0x00, 0x00,
   0x00, 0x00, 0x00, 0x80, 0x01, 0x00, 0x00, 0x00, 0x00, 0x00, 0x00, 0x00,
   0x00, 0x00, 0x00, 0x00, 0x00, 0x00, 0x00, 0x80, 0x01, 0x00, 0x00, 0x00,
   0x00, 0x00, 0x00, 0x00, 0x00, 0x00, 0x00, 0x00, 0x00, 0x00, 0x00, 0x80,
   0x01, 0x00, 0x00, 0x00, 0x00, 0x00, 0x00, 0x00, 0x00, 0x00, 0x00, 0x00,
   0x00, 0x00, 0x00, 0x80, 0x01, 0x00, 0x00, 0x00, 0x00, 0x00, 0x00, 0x00,
   0x00, 0x00, 0x00, 0x00, 0x00, 0x00, 0x00, 0x80, 0x01, 0x00, 0x00, 0x00,
   0x00, 0x00, 0x00, 0x00, 0x00, 0x00, 0x00, 0x00, 0x00, 0x00, 0x00, 0x80,
   0xff, 0xff, 0xff, 0xff, 0xff, 0xff, 0xff, 0xff, 0xff, 0xff, 0xff, 0xff,
   0xff, 0xff, 0xff, 0xff };
