#define matkhauvuanhapkhongkhop_width 128
#define matkhauvuanhapkhongkhop_height 64
static unsigned char matkhauvuanhapkhongkhop_bits[] = {
   0xff, 0xff, 0xff, 0xff, 0xff, 0xff, 0xff, 0xff, 0xff, 0xff, 0xff, 0xff,
   0xff, 0xff, 0xff, 0xff, 0x01, 0x00, 0x00, 0x00, 0x00, 0x00, 0x00, 0x00,
   0x00, 0x00, 0x00, 0x00, 0x00, 0x00, 0x00, 0x80, 0x01, 0x00, 0x00, 0x00,
   0x00, 0x00, 0x00, 0x00, 0x00, 0x00, 0x00, 0x00, 0x00, 0x00, 0x00, 0x80,
   0x01, 0x00, 0x00, 0x00, 0x00, 0x00, 0x00, 0x00, 0x00, 0x00, 0x00, 0x00,
   0x00, 0x00, 0x00, 0x80, 0x01, 0x00, 0x00, 0x00, 0x00, 0x00, 0x00, 0x00,
   0x00, 0x00, 0x00, 0x00, 0x00, 0x00, 0x00, 0x80, 0x01, 0x00, 0x00, 0x00,
   0x00, 0x00, 0x00, 0x00, 0x00, 0x00, 0x00, 0x00, 0x00, 0x00, 0x00, 0x80,
   0x01, 0x00, 0x00, 0x00, 0x00, 0x00, 0x00, 0x00, 0x00, 0x00, 0x00, 0x00,
   0x00, 0x00, 0x00, 0x80, 0x01, 0x00, 0x00, 0x00, 0x00, 0x00, 0x00, 0x00,
   0x00, 0x00, 0x00, 0x00, 0x00, 0x00, 0x00, 0x80, 0x01, 0x00, 0x00, 0x00,
   0x00, 0x00, 0x00, 0x00, 0x00, 0x00, 0x00, 0x00, 0x00, 0x00, 0x00, 0x80,
   0x01, 0x00, 0x00, 0x00, 0x00, 0x00, 0x00, 0x00, 0x00, 0x00, 0x00, 0x00,
   0x00, 0x00, 0x00, 0x80, 0x01, 0x00, 0x00, 0x00, 0x00, 0x7e, 0xf0, 0xc1,
   0x03, 0x00, 0x78, 0x00, 0x00, 0x00, 0x00, 0x80, 0x01, 0x00, 0x00, 0x00,
   0x00, 0x7f, 0xf0, 0xc1, 0x03, 0x00, 0x78, 0x00, 0x00, 0x00, 0x00, 0x80,
   0x01, 0x00, 0x00, 0x00, 0x80, 0x7f, 0xf0, 0xc1, 0x03, 0x00, 0x78, 0x00,
   0x00, 0x00, 0x00, 0x80, 0x01, 0x00, 0x00, 0x00, 0x80, 0x07, 0xb8, 0xc3,
   0x03, 0x00, 0x78, 0x00, 0x00, 0x00, 0x00, 0x80, 0x01, 0x00, 0x00, 0x00,
   0x80, 0x07, 0xb8, 0xc3, 0x03, 0x00, 0x78, 0x00, 0x00, 0x00, 0x00, 0x80,
   0x01, 0x00, 0x00, 0x00, 0x00, 0x3f, 0x18, 0xc3, 0x03, 0x00, 0x78, 0x00,
   0x00, 0x00, 0x00, 0x80, 0x01, 0x00, 0x00, 0x00, 0x00, 0x7e, 0x1c, 0xc7,
   0x03, 0x00, 0x78, 0x00, 0x00, 0x00, 0x00, 0x80, 0x01, 0x00, 0x00, 0x00,
   0x00, 0x70, 0xfc, 0xc7, 0x03, 0x00, 0x78, 0x00, 0x00, 0x00, 0x00, 0x80,
   0x01, 0x00, 0x00, 0x00, 0x00, 0x70, 0xfc, 0xc7, 0x03, 0x00, 0x00, 0x00,
   0x00, 0x00, 0x00, 0x80, 0x01, 0x00, 0x00, 0x00, 0x80, 0x7f, 0xfe, 0xcf,
   0xf3, 0xde, 0x7b, 0x00, 0x00, 0x00, 0x00, 0x80, 0x01, 0x00, 0x00, 0x00,
   0x80, 0x7f, 0x0e, 0xce, 0xf3, 0xde, 0x7b, 0x00, 0x00, 0x00, 0x00, 0x80,
   0x01, 0x00, 0x00, 0x00, 0x80, 0x3f, 0x0e, 0xce, 0xf3, 0xde, 0x7b, 0x00,
   0x00, 0x00, 0x00, 0x80, 0x01, 0x00, 0x00, 0x00, 0x00, 0x00, 0x00, 0x00,
   0x00, 0x00, 0x00, 0x00, 0x00, 0x00, 0x00, 0x80, 0x01, 0x00, 0x00, 0x00,
   0x00, 0x00, 0x00, 0x00, 0x00, 0x00, 0x00, 0x00, 0x00, 0x00, 0x00, 0x80,
   0x01, 0x00, 0x00, 0x00, 0x00, 0x00, 0x00, 0x00, 0x00, 0x00, 0x00, 0x00,
   0x00, 0x00, 0x00, 0x80, 0x01, 0x00, 0x00, 0x00, 0x00, 0x00, 0x30, 0x00,
   0x00, 0x00, 0x00, 0x00, 0x00, 0x00, 0x00, 0x80, 0x01, 0x00, 0x00, 0x00,
   0x00, 0x00, 0x40, 0x00, 0x00, 0x00, 0x00, 0x00, 0x00, 0x00, 0x00, 0x80,
   0x01, 0x00, 0x00, 0x00, 0x00, 0x00, 0x20, 0x00, 0x00, 0x04, 0x00, 0x00,
   0x00, 0x00, 0x00, 0x80, 0x01, 0x00, 0x0c, 0x00, 0x00, 0x00, 0x0c, 0x00,
   0x00, 0x48, 0x00, 0x00, 0x00, 0xc0, 0x00, 0x80, 0x01, 0x00, 0x1e, 0x00,
   0x00, 0x00, 0x1e, 0x00, 0x00, 0x90, 0x00, 0x00, 0x00, 0xe0, 0x01, 0x80,
   0x01, 0x00, 0x00, 0x00, 0x00, 0x00, 0x00, 0x00, 0x00, 0x40, 0x00, 0x00,
   0x00, 0x00, 0x00, 0x80, 0xc1, 0x39, 0x8c, 0x1f, 0x66, 0x33, 0x0c, 0x33,
   0xc6, 0x22, 0x18, 0x30, 0x32, 0xc3, 0xf0, 0x81, 0xc1, 0x39, 0x1e, 0x06,
   0x36, 0x33, 0x1e, 0x33, 0x44, 0x22, 0x3c, 0x30, 0x32, 0xe3, 0x31, 0x81,
   0xc1, 0x39, 0x12, 0x06, 0x1e, 0x33, 0x12, 0x33, 0x44, 0x22, 0x24, 0x70,
   0x32, 0x23, 0x31, 0x81, 0x41, 0x2f, 0x12, 0x06, 0x1e, 0x3f, 0x12, 0x33,
   0x6c, 0x22, 0x66, 0xf0, 0xf3, 0x33, 0xf3, 0x81, 0x41, 0x26, 0x3f, 0x06,
   0x1e, 0x33, 0x3f, 0x33, 0x28, 0x36, 0x7e, 0x90, 0x33, 0xf3, 0x33, 0x80,
   0x41, 0x26, 0x33, 0x06, 0x36, 0x33, 0x33, 0x3f, 0x38, 0x3e, 0x66, 0x10,
   0x33, 0x33, 0x33, 0x80, 0x41, 0xa6, 0x73, 0x06, 0x66, 0xb3, 0x73, 0x1e,
   0x10, 0x1c, 0xe7, 0x10, 0x32, 0x33, 0x33, 0x80, 0x01, 0x00, 0x00, 0x00,
   0x00, 0x00, 0x00, 0x00, 0x00, 0x00, 0x00, 0x00, 0x00, 0x00, 0x00, 0x80,
   0x01, 0x00, 0x0c, 0x00, 0x00, 0x00, 0x00, 0x00, 0x00, 0x00, 0x00, 0x01,
   0x00, 0xc0, 0x00, 0x80, 0x01, 0x00, 0x00, 0x00, 0x00, 0xc0, 0x00, 0x00,
   0x00, 0x00, 0x80, 0x04, 0x00, 0x00, 0x00, 0x80, 0x01, 0x00, 0x00, 0x00,
   0x00, 0xe0, 0x01, 0x00, 0x00, 0x00, 0x40, 0x08, 0x00, 0x00, 0x00, 0x80,
   0x01, 0x00, 0x00, 0x00, 0x00, 0x00, 0x00, 0x00, 0x00, 0x00, 0x00, 0x04,
   0x00, 0x00, 0x00, 0x80, 0x01, 0x00, 0x00, 0x60, 0x36, 0xe3, 0x31, 0xf2,
   0xc1, 0x6c, 0xc6, 0xe7, 0x03, 0x00, 0x00, 0x80, 0x01, 0x00, 0x00, 0x60,
   0x33, 0x33, 0x33, 0x32, 0xc1, 0x66, 0x66, 0x66, 0x02, 0x00, 0x00, 0x80,
   0x01, 0x00, 0x00, 0xe0, 0x31, 0x13, 0x72, 0x32, 0xc0, 0x63, 0x26, 0x64,
   0x02, 0x00, 0x00, 0x80, 0x01, 0x00, 0x00, 0xe0, 0xf1, 0x13, 0xd2, 0xb2,
   0xc1, 0xe3, 0x27, 0xe4, 0x03, 0x00, 0x00, 0x80, 0x01, 0x00, 0x00, 0xe0,
   0x31, 0x13, 0x92, 0x33, 0xc1, 0x63, 0x26, 0x64, 0x00, 0x00, 0x00, 0x80,
   0x01, 0x00, 0x00, 0x60, 0x33, 0x33, 0x13, 0x33, 0xc1, 0x66, 0x66, 0x66,
   0x00, 0x00, 0x00, 0x80, 0x01, 0x00, 0x00, 0x60, 0x36, 0xe3, 0x11, 0xf2,
   0xc1, 0x6c, 0xc6, 0x63, 0x00, 0x00, 0x00, 0x80, 0x01, 0x00, 0x00, 0x00,
   0x00, 0x00, 0x00, 0x00, 0x00, 0x00, 0x00, 0x00, 0x00, 0x00, 0x00, 0x80,
   0x01, 0x00, 0x00, 0x00, 0x00, 0x00, 0x00, 0x00, 0x00, 0x00, 0x00, 0x00,
   0x00, 0x00, 0x00, 0x80, 0x01, 0x00, 0x00, 0x00, 0x00, 0x00, 0x00, 0x00,
   0x00, 0x00, 0x00, 0x00, 0x00, 0x00, 0x00, 0x80, 0x01, 0x00, 0x00, 0x00,
   0x00, 0x00, 0x00, 0x00, 0x00, 0x00, 0x00, 0x00, 0x00, 0x00, 0x00, 0x80,
   0x01, 0x00, 0x00, 0x00, 0x00, 0x00, 0x00, 0x00, 0x00, 0x00, 0x00, 0x00,
   0x00, 0x00, 0x00, 0x80, 0x01, 0x00, 0x00, 0x00, 0x00, 0x00, 0x00, 0x00,
   0x00, 0x00, 0x00, 0x00, 0x00, 0x00, 0x00, 0x80, 0x01, 0x00, 0x00, 0x00,
   0x00, 0x00, 0x00, 0x00, 0x00, 0x00, 0x00, 0x00, 0x00, 0x00, 0x00, 0x80,
   0x01, 0x00, 0x00, 0x00, 0x00, 0x00, 0x00, 0x00, 0x00, 0x00, 0x00, 0x00,
   0x00, 0x00, 0x00, 0x80, 0x01, 0x00, 0x00, 0x00, 0x00, 0x00, 0x00, 0x00,
   0x00, 0x00, 0x00, 0x00, 0x00, 0x00, 0x00, 0x80, 0x01, 0x00, 0x00, 0x00,
   0x00, 0x00, 0x00, 0x00, 0x00, 0x00, 0x00, 0x00, 0x00, 0x00, 0x00, 0x80,
   0x01, 0x00, 0x00, 0x00, 0x00, 0x00, 0x00, 0x00, 0x00, 0x00, 0x00, 0x00,
   0x00, 0x00, 0x00, 0x80, 0x01, 0x00, 0x00, 0x00, 0x00, 0x00, 0x00, 0x00,
   0x00, 0x00, 0x00, 0x00, 0x00, 0x00, 0x00, 0x80, 0x01, 0x00, 0x00, 0x00,
   0x00, 0x00, 0x00, 0x00, 0x00, 0x00, 0x00, 0x00, 0x00, 0x00, 0x00, 0x80,
   0xff, 0xff, 0xff, 0xff, 0xff, 0xff, 0xff, 0xff, 0xff, 0xff, 0xff, 0xff,
   0xff, 0xff, 0xff, 0xff };
