#define sai_thehoacmatkhau_width 128
#define sai_thehoacmatkhau_height 64
static unsigned char sai_thehoacmatkhau_bits[] = {
   0xff, 0xff, 0xff, 0xff, 0xff, 0xff, 0xff, 0xff, 0xff, 0xff, 0xff, 0xff,
   0xff, 0xff, 0xff, 0xff, 0x01, 0x00, 0x00, 0x00, 0x00, 0x00, 0x00, 0x00,
   0x00, 0x00, 0x00, 0x00, 0x00, 0x00, 0x00, 0x80, 0x01, 0x00, 0x00, 0x00,
   0x00, 0x00, 0x00, 0x00, 0x00, 0x00, 0x00, 0x00, 0x00, 0x00, 0x00, 0x80,
   0x01, 0x00, 0x00, 0x00, 0x00, 0x00, 0x00, 0x00, 0x00, 0x00, 0x00, 0x00,
   0x00, 0x00, 0x00, 0x80, 0x01, 0x00, 0x00, 0x00, 0x00, 0x00, 0x00, 0x00,
   0x00, 0x00, 0x00, 0x00, 0x00, 0x00, 0x00, 0x80, 0x01, 0x00, 0x00, 0x00,
   0x00, 0x00, 0x00, 0x00, 0x00, 0x00, 0x00, 0x00, 0x00, 0x00, 0x00, 0x80,
   0x01, 0x00, 0x00, 0x00, 0x00, 0x00, 0x00, 0x00, 0x00, 0x00, 0x00, 0x00,
   0x00, 0x00, 0x00, 0x80, 0x01, 0x00, 0x00, 0x00, 0x00, 0x00, 0x00, 0x00,
   0x00, 0x00, 0x00, 0x00, 0x00, 0x00, 0x00, 0x80, 0x01, 0x00, 0x00, 0x00,
   0x00, 0x00, 0x00, 0x00, 0x00, 0x00, 0x00, 0x00, 0x00, 0x00, 0x00, 0x80,
   0x01, 0x00, 0x00, 0x00, 0x00, 0x00, 0x00, 0x00, 0x00, 0x00, 0x00, 0x00,
   0x00, 0x00, 0x00, 0x80, 0x01, 0x00, 0x00, 0x00, 0x00, 0x00, 0x00, 0x00,
   0x00, 0x00, 0x00, 0x00, 0x00, 0x00, 0x00, 0x80, 0x01, 0x00, 0x00, 0x00,
   0x00, 0x00, 0x00, 0x00, 0x00, 0x00, 0x00, 0x00, 0x00, 0x00, 0x00, 0x80,
   0x01, 0x00, 0x00, 0x00, 0x00, 0x3e, 0xe0, 0xc0, 0x03, 0x00, 0x78, 0x00,
   0x00, 0x00, 0x00, 0x80, 0x01, 0x00, 0x00, 0x00, 0x00, 0x7f, 0xf0, 0xc1,
   0x03, 0x00, 0x78, 0x00, 0x00, 0x00, 0x00, 0x80, 0x01, 0x00, 0x00, 0x00,
   0x80, 0x7f, 0xf0, 0xc1, 0x03, 0x00, 0x78, 0x00, 0x00, 0x00, 0x00, 0x80,
   0x01, 0x00, 0x00, 0x00, 0x80, 0x07, 0xb8, 0xc3, 0x03, 0x00, 0x78, 0x00,
   0x00, 0x00, 0x00, 0x80, 0x01, 0x00, 0x00, 0x00, 0x80, 0x0f, 0xb8, 0xc3,
   0x03, 0x00, 0x78, 0x00, 0x00, 0x00, 0x00, 0x80, 0x01, 0x00, 0x00, 0x00,
   0x00, 0x3f, 0x1c, 0xc7, 0x03, 0x00, 0x78, 0x00, 0x00, 0x00, 0x00, 0x80,
   0x01, 0x00, 0x00, 0x00, 0x00, 0x7c, 0x1c, 0xc7, 0x03, 0x00, 0x78, 0x00,
   0x00, 0x00, 0x00, 0x80, 0x01, 0x00, 0x00, 0x00, 0x00, 0x78, 0xfc, 0xc7,
   0x03, 0x00, 0x78, 0x00, 0x00, 0x00, 0x00, 0x80, 0x01, 0x00, 0x00, 0x00,
   0x00, 0x70, 0xfe, 0xcf, 0x03, 0x00, 0x00, 0x00, 0x00, 0x00, 0x00, 0x80,
   0x01, 0x00, 0x00, 0x00, 0x80, 0x7f, 0xfe, 0xcf, 0xf3, 0xde, 0x7b, 0x00,
   0x00, 0x00, 0x00, 0x80, 0x01, 0x00, 0x00, 0x00, 0x80, 0x7f, 0x0e, 0xce,
   0xf3, 0xde, 0x7b, 0x00, 0x00, 0x00, 0x00, 0x80, 0x01, 0x00, 0x00, 0x00,
   0x00, 0x3f, 0x0f, 0xde, 0xf3, 0xde, 0x7b, 0x00, 0x00, 0x00, 0x00, 0x80,
   0x01, 0x00, 0x00, 0x00, 0x00, 0x00, 0x00, 0x00, 0x00, 0x00, 0x00, 0x00,
   0x00, 0x00, 0x00, 0x80, 0x01, 0x00, 0x00, 0x00, 0x00, 0x00, 0x00, 0x00,
   0x00, 0x00, 0x00, 0x00, 0x00, 0x00, 0x00, 0x80, 0x01, 0x00, 0x00, 0x00,
   0x00, 0x00, 0x00, 0x00, 0x00, 0x00, 0x00, 0x00, 0x00, 0x00, 0x00, 0x80,
   0x01, 0x00, 0x00, 0x00, 0x00, 0x00, 0x00, 0x00, 0x00, 0x00, 0x00, 0x00,
   0x00, 0x00, 0x00, 0x80, 0x01, 0x00, 0x00, 0x00, 0x00, 0x00, 0x00, 0x00,
   0x00, 0x00, 0x00, 0x00, 0x00, 0x60, 0x00, 0x80, 0x01, 0x00, 0x00, 0x00,
   0x00, 0x00, 0x00, 0x00, 0x00, 0x00, 0x00, 0x00, 0x00, 0x80, 0x00, 0x80,
   0x01, 0x00, 0xc0, 0x00, 0x00, 0x00, 0x00, 0x00, 0x00, 0x00, 0x00, 0x00,
   0x00, 0x40, 0x00, 0x80, 0x01, 0x00, 0x80, 0x00, 0x00, 0x80, 0x04, 0x00,
   0x00, 0x18, 0x00, 0x00, 0x00, 0x18, 0x00, 0x80, 0x01, 0x00, 0x40, 0x00,
   0x00, 0x00, 0x03, 0x00, 0x00, 0x3c, 0x00, 0x00, 0x00, 0x3c, 0x00, 0x80,
   0x01, 0x00, 0x00, 0x00, 0x00, 0x00, 0x00, 0x00, 0x00, 0x00, 0x00, 0x00,
   0x00, 0x00, 0x00, 0x80, 0xc1, 0x6f, 0xe6, 0xc1, 0x8c, 0x07, 0x83, 0x87,
   0x73, 0x18, 0x3f, 0xec, 0x66, 0x18, 0x66, 0x80, 0x01, 0x63, 0x66, 0xc0,
   0xcc, 0x8f, 0xc7, 0x87, 0x73, 0x3c, 0x0c, 0x6c, 0x66, 0x3c, 0x66, 0x80,
   0x01, 0xe3, 0x67, 0xc0, 0xcf, 0x8c, 0xc7, 0x80, 0x73, 0x24, 0x0c, 0x3c,
   0x7e, 0x24, 0x66, 0x80, 0x01, 0xe3, 0xe7, 0xc1, 0xcf, 0xcc, 0xcc, 0x80,
   0x7f, 0x66, 0x0c, 0x3c, 0x7e, 0x24, 0x66, 0x80, 0x01, 0x63, 0x66, 0xc0,
   0xcc, 0xcc, 0xcf, 0x80, 0x6d, 0x7e, 0x0c, 0x3c, 0x66, 0x7e, 0x66, 0x80,
   0x01, 0x63, 0x66, 0xc0, 0xcc, 0xcf, 0xcf, 0x87, 0x6d, 0x66, 0x0c, 0x6c,
   0x66, 0x66, 0x3c, 0x80, 0x01, 0x63, 0xe6, 0xc1, 0x8c, 0x67, 0x98, 0x87,
   0x6d, 0xe7, 0x0c, 0xec, 0x66, 0xe7, 0x18, 0x80, 0x01, 0x00, 0x00, 0x00,
   0x00, 0x00, 0x03, 0x00, 0x00, 0x00, 0x00, 0x00, 0x00, 0x00, 0x00, 0x80,
   0x01, 0x00, 0x00, 0x00, 0x00, 0x00, 0x03, 0x00, 0x00, 0x18, 0x00, 0x00,
   0x00, 0x00, 0x00, 0x80, 0x01, 0x00, 0x00, 0x00, 0x00, 0x60, 0x00, 0x00,
   0x00, 0x00, 0x03, 0x00, 0x00, 0x00, 0x00, 0x80, 0x01, 0x00, 0x00, 0x00,
   0x00, 0xf0, 0x00, 0x00, 0x00, 0x80, 0x00, 0x00, 0x00, 0x00, 0x00, 0x80,
   0x01, 0x00, 0x00, 0x00, 0x00, 0x00, 0x00, 0x00, 0x00, 0x00, 0x00, 0x00,
   0x00, 0x00, 0x00, 0x80, 0x01, 0x00, 0x00, 0x30, 0x9b, 0xf1, 0x18, 0xf1,
   0xe0, 0x33, 0x36, 0xe2, 0x01, 0x00, 0x00, 0x80, 0x01, 0x00, 0x00, 0xb0,
   0x99, 0xf9, 0x39, 0x99, 0x20, 0x36, 0x36, 0x32, 0x01, 0x00, 0x00, 0x80,
   0x01, 0x00, 0x00, 0xf0, 0xf8, 0x99, 0x39, 0x19, 0x20, 0x34, 0x76, 0x32,
   0x00, 0x00, 0x00, 0x80, 0x01, 0x00, 0x00, 0xf0, 0xf8, 0x99, 0x79, 0xd9,
   0xf0, 0x34, 0xd6, 0xb2, 0x01, 0x00, 0x00, 0x80, 0x01, 0x00, 0x00, 0xf0,
   0x98, 0x99, 0xc9, 0x99, 0x20, 0xf4, 0x97, 0x33, 0x01, 0x00, 0x00, 0x80,
   0x01, 0x00, 0x00, 0xb0, 0x99, 0xf9, 0xc9, 0x99, 0x20, 0xe6, 0x13, 0x33,
   0x01, 0x00, 0x00, 0x80, 0x01, 0x00, 0x00, 0x30, 0x9b, 0xf1, 0x88, 0xf1,
   0xe0, 0xc3, 0x11, 0xe3, 0x01, 0x00, 0x00, 0x80, 0x01, 0x00, 0x00, 0x00,
   0x00, 0x00, 0x00, 0x00, 0x00, 0x00, 0x00, 0x00, 0x00, 0x00, 0x00, 0x80,
   0x01, 0x00, 0x00, 0x00, 0x00, 0x00, 0x00, 0x00, 0x00, 0x00, 0x00, 0x00,
   0x00, 0x00, 0x00, 0x80, 0x01, 0x00, 0x00, 0x00, 0x00, 0x00, 0x00, 0x00,
   0x00, 0x00, 0x00, 0x00, 0x00, 0x00, 0x00, 0x80, 0x01, 0x00, 0x00, 0x00,
   0x00, 0x00, 0x00, 0x00, 0x00, 0x00, 0x00, 0x00, 0x00, 0x00, 0x00, 0x80,
   0x01, 0x00, 0x00, 0x00, 0x00, 0x00, 0x00, 0x00, 0x00, 0x00, 0x00, 0x00,
   0x00, 0x00, 0x00, 0x80, 0x01, 0x00, 0x00, 0x00, 0x00, 0x00, 0x00, 0x00,
   0x00, 0x00, 0x00, 0x00, 0x00, 0x00, 0x00, 0x80, 0x01, 0x00, 0x00, 0x00,
   0x00, 0x00, 0x00, 0x00, 0x00, 0x00, 0x00, 0x00, 0x00, 0x00, 0x00, 0x80,
   0x01, 0x00, 0x00, 0x00, 0x00, 0x00, 0x00, 0x00, 0x00, 0x00, 0x00, 0x00,
   0x00, 0x00, 0x00, 0x80, 0x01, 0x00, 0x00, 0x00, 0x00, 0x00, 0x00, 0x00,
   0x00, 0x00, 0x00, 0x00, 0x00, 0x00, 0x00, 0x80, 0x01, 0x00, 0x00, 0x00,
   0x00, 0x00, 0x00, 0x00, 0x00, 0x00, 0x00, 0x00, 0x00, 0x00, 0x00, 0x80,
   0xff, 0xff, 0xff, 0xff, 0xff, 0xff, 0xff, 0xff, 0xff, 0xff, 0xff, 0xff,
   0xff, 0xff, 0xff, 0xff };
