#define tuchuasudung_width 128
#define tuchuasudung_height 64
static unsigned char tuchuasudung_bits[] = {
   0xff, 0xff, 0xff, 0xff, 0xff, 0xff, 0xff, 0xff, 0xff, 0xff, 0xff, 0xff,
   0xff, 0xff, 0xff, 0xff, 0x01, 0x00, 0x00, 0x00, 0x00, 0x00, 0x00, 0x00,
   0x00, 0x00, 0x00, 0x00, 0x00, 0x00, 0x00, 0x80, 0x01, 0x00, 0x00, 0x00,
   0x00, 0x00, 0x00, 0x00, 0x00, 0x00, 0x00, 0x00, 0x00, 0x00, 0x00, 0x80,
   0x01, 0x00, 0x00, 0x00, 0x00, 0x00, 0x00, 0x00, 0x00, 0x00, 0x00, 0x00,
   0x00, 0x00, 0x00, 0x80, 0x01, 0x00, 0x00, 0x00, 0x00, 0x00, 0x00, 0x00,
   0x00, 0x00, 0x00, 0x00, 0x00, 0x00, 0x00, 0x80, 0x01, 0x00, 0x00, 0x00,
   0x00, 0x00, 0x00, 0x00, 0x00, 0x00, 0x00, 0x00, 0x00, 0x00, 0x00, 0x80,
   0x01, 0x00, 0x00, 0x00, 0x00, 0x00, 0x00, 0x00, 0x00, 0x00, 0x00, 0x00,
   0x00, 0x00, 0x00, 0x80, 0x01, 0x00, 0x00, 0x00, 0x00, 0x00, 0x00, 0x00,
   0x00, 0x00, 0x00, 0x00, 0x00, 0x00, 0x00, 0x80, 0x01, 0x00, 0x00, 0x00,
   0x00, 0x00, 0x00, 0x00, 0x00, 0x00, 0x00, 0x00, 0x00, 0x00, 0x00, 0x80,
   0x01, 0x00, 0x00, 0x00, 0x00, 0x00, 0x00, 0x00, 0x00, 0x00, 0x00, 0x00,
   0x00, 0x00, 0x00, 0x80, 0x01, 0x00, 0x00, 0x00, 0x00, 0x00, 0x00, 0x00,
   0x00, 0x00, 0x00, 0x00, 0x00, 0x00, 0x00, 0x80, 0x01, 0x00, 0x00, 0x00,
   0x00, 0x00, 0x00, 0x00, 0x00, 0x00, 0x00, 0x00, 0x00, 0x00, 0x00, 0x80,
   0x01, 0x00, 0x00, 0x00, 0x00, 0x00, 0x00, 0x00, 0x00, 0x00, 0x00, 0x00,
   0x00, 0x00, 0x00, 0x80, 0x01, 0x00, 0x06, 0x00, 0x00, 0x00, 0x00, 0x00,
   0x00, 0x18, 0x00, 0x00, 0x00, 0x00, 0x00, 0x80, 0x01, 0x00, 0x04, 0x00,
   0x00, 0x00, 0x04, 0x00, 0x00, 0xa0, 0x00, 0x00, 0x00, 0x00, 0x00, 0x80,
   0x01, 0x00, 0x02, 0x00, 0x00, 0x00, 0x08, 0x00, 0x00, 0x10, 0x01, 0x00,
   0x00, 0x00, 0x00, 0x80, 0x01, 0x00, 0x00, 0x00, 0x00, 0x00, 0x08, 0x00,
   0x00, 0x00, 0x01, 0x00, 0x00, 0x00, 0x00, 0x80, 0xc1, 0xcf, 0x18, 0xf0,
   0x0c, 0x33, 0x06, 0x07, 0x7c, 0xc6, 0xc0, 0x87, 0x31, 0xc7, 0xf0, 0x81,
   0xc1, 0xcf, 0x18, 0xf8, 0x0c, 0x33, 0x06, 0x07, 0x7c, 0xc6, 0xc0, 0x8f,
   0x31, 0xcf, 0xf8, 0x81, 0x01, 0xc3, 0x18, 0x1c, 0x0c, 0x33, 0x86, 0x0d,
   0x0c, 0xc6, 0xc0, 0x98, 0x31, 0xcf, 0x1c, 0x80, 0x01, 0xc3, 0x18, 0x1c,
   0xfc, 0x33, 0x86, 0x0d, 0x0c, 0xc6, 0xc0, 0x98, 0x31, 0xdf, 0x0c, 0x80,
   0x01, 0xc3, 0x18, 0x1c, 0xfc, 0x33, 0x86, 0x08, 0x7c, 0xc6, 0xc0, 0x98,
   0x31, 0xdb, 0xcc, 0x81, 0x01, 0xc3, 0x18, 0x1c, 0x0c, 0x33, 0xc6, 0x1f,
   0x60, 0xc6, 0xc0, 0x98, 0x31, 0xf3, 0x8c, 0x81, 0x01, 0xc3, 0x1f, 0x1c,
   0x0c, 0xf3, 0xc7, 0x1f, 0x60, 0xfe, 0xc0, 0x98, 0x3f, 0xf3, 0x8c, 0x81,
   0x01, 0x83, 0x0f, 0xf8, 0x0c, 0xe3, 0xc3, 0x18, 0x7c, 0x7c, 0xc0, 0x0f,
   0x1f, 0xf3, 0xf8, 0x81, 0x01, 0x03, 0x07, 0xf0, 0x0c, 0xc3, 0xe1, 0x38,
   0x7c, 0x38, 0xc0, 0x07, 0x0e, 0xe3, 0xf0, 0x80, 0x01, 0x00, 0x00, 0x00,
   0x00, 0x00, 0x00, 0x00, 0x00, 0x00, 0x00, 0x00, 0x00, 0x00, 0x00, 0x80,
   0x01, 0x00, 0x00, 0x00, 0x00, 0x00, 0x00, 0x00, 0x00, 0x00, 0x00, 0x00,
   0x0e, 0x00, 0x00, 0x80, 0x01, 0x00, 0x03, 0x00, 0x00, 0x00, 0x00, 0x00,
   0x00, 0x00, 0x06, 0x00, 0x0e, 0x00, 0x04, 0x80, 0x01, 0x00, 0x24, 0x00,
   0x00, 0x00, 0x00, 0x00, 0x00, 0x00, 0x08, 0x00, 0x00, 0x00, 0x02, 0x80,
   0x01, 0x00, 0x40, 0x00, 0x00, 0x00, 0x00, 0x00, 0x00, 0x00, 0x04, 0x00,
   0x00, 0x00, 0x01, 0x80, 0x01, 0x00, 0x20, 0x00, 0x00, 0x00, 0x00, 0x00,
   0x00, 0x00, 0x00, 0x00, 0x00, 0x00, 0x00, 0x80, 0x79, 0x1e, 0x3e, 0x03,
   0x9e, 0x61, 0x38, 0x0c, 0x83, 0x9f, 0x31, 0x98, 0x1b, 0x86, 0x03, 0x8f,
   0x79, 0x1e, 0x3f, 0x03, 0x9f, 0x61, 0x7c, 0x1c, 0x83, 0x9f, 0x31, 0xd8,
   0x1b, 0x86, 0x83, 0x8f, 0x59, 0x9e, 0x3f, 0x83, 0x83, 0x61, 0xfe, 0x3c,
   0x03, 0x86, 0x31, 0xd8, 0x19, 0xc6, 0xc6, 0x81, 0x59, 0x9a, 0x31, 0x83,
   0x83, 0x7f, 0xc6, 0x7c, 0x03, 0x86, 0x31, 0xf8, 0xf8, 0xc7, 0xc6, 0x81,
   0xd9, 0x9b, 0x31, 0x83, 0x83, 0x7f, 0xc6, 0xfc, 0x03, 0x86, 0x31, 0xf8,
   0xf8, 0x67, 0xcc, 0x81, 0xd9, 0x9b, 0x31, 0x83, 0x83, 0x61, 0xc6, 0xec,
   0x03, 0x86, 0x31, 0xd8, 0x18, 0xe6, 0xcf, 0x81, 0xd9, 0x9b, 0x3f, 0x83,
   0x83, 0x61, 0xfe, 0xcc, 0x03, 0x86, 0x3f, 0xd8, 0x19, 0xe6, 0xcf, 0x81,
   0x99, 0x19, 0x1f, 0x03, 0x9f, 0x61, 0x7c, 0x8c, 0x03, 0x06, 0x1f, 0x98,
   0x1b, 0x66, 0x8c, 0x8f, 0x99, 0x19, 0x0e, 0x03, 0x9e, 0x61, 0x38, 0x0c,
   0x03, 0x06, 0x0e, 0x98, 0x1b, 0x66, 0x0c, 0x8f, 0x01, 0x00, 0x00, 0x00,
   0x00, 0x00, 0x00, 0x00, 0x00, 0x00, 0x00, 0x00, 0x00, 0x00, 0x00, 0x80,
   0x01, 0x00, 0x00, 0x00, 0x00, 0x00, 0x38, 0x00, 0x00, 0x00, 0x00, 0x00,
   0x00, 0x00, 0x00, 0x80, 0x01, 0x00, 0x00, 0x00, 0x00, 0x00, 0x38, 0x00,
   0x00, 0x00, 0x00, 0x00, 0x00, 0x00, 0x00, 0x80, 0x01, 0x00, 0x00, 0x00,
   0x00, 0x00, 0x00, 0x00, 0x00, 0x00, 0x00, 0x00, 0x00, 0x00, 0x00, 0x80,
   0x01, 0x00, 0x00, 0x00, 0x00, 0x00, 0x00, 0x00, 0x00, 0x00, 0x00, 0x00,
   0x00, 0x00, 0x00, 0x80, 0x01, 0x00, 0x00, 0x00, 0x00, 0x00, 0x00, 0x00,
   0x00, 0x00, 0x00, 0x00, 0x00, 0x00, 0x00, 0x80, 0x01, 0x00, 0x00, 0x00,
   0x00, 0x00, 0x00, 0x00, 0x00, 0x00, 0x00, 0x00, 0x00, 0x00, 0x00, 0x80,
   0x01, 0x00, 0x00, 0x00, 0x00, 0x00, 0x00, 0x00, 0x00, 0x00, 0x00, 0x00,
   0x00, 0x00, 0x00, 0x80, 0x01, 0x00, 0x00, 0x00, 0x00, 0x00, 0x00, 0x00,
   0x00, 0x00, 0x00, 0x00, 0x00, 0x00, 0x00, 0x80, 0x01, 0x00, 0x00, 0x00,
   0x00, 0x00, 0x00, 0x00, 0x00, 0x00, 0x00, 0x00, 0x00, 0x00, 0x00, 0x80,
   0x01, 0x00, 0x00, 0x00, 0x00, 0x00, 0x00, 0x00, 0x00, 0x00, 0x00, 0x00,
   0x00, 0x00, 0x00, 0x80, 0x01, 0x00, 0x00, 0x00, 0x00, 0x00, 0x00, 0x00,
   0x00, 0x00, 0x00, 0x00, 0x00, 0x00, 0x00, 0x80, 0x01, 0x00, 0x00, 0x00,
   0x00, 0x00, 0x00, 0x00, 0x00, 0x00, 0x00, 0x00, 0x00, 0x00, 0x00, 0x80,
   0x01, 0x00, 0x00, 0x00, 0x00, 0x00, 0x00, 0x00, 0x00, 0x00, 0x00, 0x00,
   0x00, 0x00, 0x00, 0x80, 0x01, 0x00, 0x00, 0x00, 0x00, 0x00, 0x00, 0x00,
   0x00, 0x00, 0x00, 0x00, 0x00, 0x00, 0x00, 0x80, 0x01, 0x00, 0x00, 0x00,
   0x00, 0x00, 0x00, 0x00, 0x00, 0x00, 0x00, 0x00, 0x00, 0x00, 0x00, 0x80,
   0x01, 0x00, 0x00, 0x00, 0x00, 0x00, 0x00, 0x00, 0x00, 0x00, 0x00, 0x00,
   0x00, 0x00, 0x00, 0x80, 0x01, 0x00, 0x00, 0x00, 0x00, 0x00, 0x00, 0x00,
   0x00, 0x00, 0x00, 0x00, 0x00, 0x00, 0x00, 0x80, 0x01, 0x00, 0x00, 0x00,
   0x00, 0x00, 0x00, 0x00, 0x00, 0x00, 0x00, 0x00, 0x00, 0x00, 0x00, 0x80,
   0x01, 0x00, 0x00, 0x00, 0x00, 0x00, 0x00, 0x00, 0x00, 0x00, 0x00, 0x00,
   0x00, 0x00, 0x00, 0x80, 0x01, 0x00, 0x00, 0x00, 0x00, 0x00, 0x00, 0x00,
   0x00, 0x00, 0x00, 0x00, 0x00, 0x00, 0x00, 0x80, 0x01, 0x00, 0x00, 0x00,
   0x00, 0x00, 0x00, 0x00, 0x00, 0x00, 0x00, 0x00, 0x00, 0x00, 0x00, 0x80,
   0xff, 0xff, 0xff, 0xff, 0xff, 0xff, 0xff, 0xff, 0xff, 0xff, 0xff, 0xff,
   0xff, 0xff, 0xff, 0xff };
