#define xinchaomoichontu_width 128
#define xinchaomoichontu_height 64
static unsigned char xinchaomoichontu_bits[] = {
   0xff, 0xff, 0xff, 0xff, 0xff, 0xff, 0xff, 0xff, 0xff, 0xff, 0xff, 0xff,
   0xff, 0xff, 0xff, 0xff, 0xff, 0xff, 0xff, 0xff, 0xff, 0xff, 0xff, 0xff,
   0xff, 0xff, 0xff, 0xff, 0xff, 0xff, 0xff, 0xff, 0x03, 0x00, 0x00, 0x00,
   0x00, 0x00, 0x00, 0x00, 0x00, 0x00, 0x00, 0x00, 0x00, 0x00, 0x00, 0xc0,
   0x03, 0x00, 0x00, 0x00, 0x00, 0x00, 0x00, 0x00, 0x00, 0x00, 0x00, 0x00,
   0x00, 0x00, 0x00, 0xc0, 0x03, 0x00, 0x00, 0x00, 0x00, 0x00, 0x00, 0x00,
   0x00, 0x00, 0x00, 0x00, 0x00, 0x00, 0x00, 0xc0, 0x03, 0x00, 0x00, 0x00,
   0x00, 0x00, 0x00, 0x00, 0x00, 0x00, 0x00, 0x00, 0x00, 0x00, 0x00, 0xc0,
   0x03, 0x00, 0x00, 0x00, 0x00, 0x00, 0x00, 0x00, 0x00, 0x00, 0x00, 0x00,
   0x00, 0x00, 0x00, 0xc0, 0x03, 0x00, 0x00, 0x00, 0x00, 0x00, 0x00, 0x00,
   0x00, 0x00, 0x00, 0x00, 0x00, 0x00, 0x00, 0xc0, 0x03, 0x00, 0x00, 0x00,
   0x00, 0x00, 0x00, 0x00, 0x00, 0x00, 0x00, 0x00, 0x00, 0x00, 0x00, 0xc0,
   0x03, 0x00, 0x00, 0x00, 0x00, 0x00, 0x00, 0x00, 0x00, 0x00, 0x0c, 0x00,
   0x00, 0x00, 0x00, 0xc0, 0x03, 0x00, 0x00, 0x00, 0x00, 0x00, 0x00, 0x00,
   0x00, 0x00, 0x1c, 0x00, 0x00, 0x00, 0x00, 0xc0, 0x03, 0x00, 0x00, 0x00,
   0x00, 0x00, 0x00, 0x00, 0x00, 0x00, 0x38, 0x00, 0x00, 0x00, 0x00, 0xc0,
   0x03, 0x00, 0x00, 0x00, 0x00, 0x00, 0x00, 0x00, 0x00, 0x00, 0x30, 0x00,
   0x00, 0x00, 0x00, 0xc0, 0x03, 0x00, 0x00, 0x00, 0x00, 0x00, 0x00, 0x00,
   0x00, 0x00, 0x00, 0x00, 0x00, 0x00, 0x00, 0xc0, 0x03, 0x00, 0xc0, 0xe3,
   0x3d, 0x0f, 0x07, 0xf8, 0x7b, 0x3c, 0x78, 0xc0, 0x0f, 0x00, 0x00, 0xc0,
   0x03, 0x00, 0xc0, 0xe3, 0x3d, 0x0f, 0x07, 0xfc, 0x7b, 0x3c, 0xf8, 0xe0,
   0x1f, 0x00, 0x00, 0xc0, 0x03, 0x00, 0x80, 0xf7, 0x3c, 0x1f, 0x07, 0xfe,
   0x7b, 0x3c, 0xfc, 0xf0, 0x3f, 0x00, 0x00, 0xc0, 0x03, 0x00, 0x00, 0x7f,
   0x3c, 0x3f, 0x07, 0x1e, 0x78, 0x3c, 0xfc, 0xf0, 0x3c, 0x00, 0x00, 0xc0,
   0x03, 0x00, 0x00, 0x7f, 0x3c, 0x7f, 0x07, 0x1e, 0xf8, 0x3f, 0xce, 0x71,
   0x38, 0x00, 0x00, 0xc0, 0x03, 0x00, 0x00, 0x3e, 0x3c, 0xff, 0x07, 0x1e,
   0xf8, 0x3f, 0xce, 0x71, 0x38, 0x00, 0x00, 0xc0, 0x03, 0x00, 0x00, 0x7f,
   0x3c, 0xf7, 0x07, 0x1e, 0xf8, 0x3f, 0xce, 0x71, 0x38, 0x00, 0x00, 0xc0,
   0x03, 0x00, 0x00, 0x7f, 0x3c, 0xe7, 0x07, 0x1e, 0x78, 0x3c, 0xff, 0xf3,
   0x3c, 0x00, 0x00, 0xc0, 0x03, 0x00, 0x80, 0xf7, 0x3c, 0xc7, 0x07, 0xfe,
   0x7b, 0xbc, 0xff, 0xf7, 0x3f, 0x00, 0x00, 0xc0, 0x03, 0x00, 0xc0, 0xe3,
   0x3d, 0x87, 0x07, 0xfc, 0x7b, 0xbc, 0x87, 0xe7, 0x1f, 0x00, 0x00, 0xc0,
   0x03, 0x00, 0xc0, 0xe3, 0x3d, 0x07, 0x07, 0xf8, 0x7b, 0xbc, 0x87, 0xc7,
   0x0f, 0x00, 0x00, 0xc0, 0x03, 0x00, 0x00, 0x00, 0x00, 0x00, 0x00, 0x00,
   0x00, 0x00, 0x00, 0x00, 0x00, 0x00, 0x00, 0xc0, 0x03, 0x00, 0x00, 0x00,
   0x00, 0x00, 0x00, 0x00, 0x00, 0x00, 0x00, 0x00, 0x00, 0x00, 0x00, 0xc0,
   0x03, 0x00, 0x00, 0x00, 0x00, 0x00, 0x00, 0x00, 0x00, 0x00, 0x00, 0x00,
   0x00, 0x00, 0x00, 0xc0, 0x03, 0x00, 0x00, 0x00, 0x00, 0x00, 0x00, 0x00,
   0x00, 0x00, 0x00, 0x00, 0x00, 0x00, 0x00, 0xc0, 0x03, 0x00, 0x00, 0x00,
   0x00, 0x00, 0x00, 0x00, 0x00, 0x00, 0x00, 0x00, 0x00, 0x00, 0x00, 0xc0,
   0x03, 0x00, 0x00, 0x06, 0x00, 0x00, 0x00, 0x00, 0x00, 0x00, 0x00, 0x00,
   0x00, 0x00, 0x06, 0xc0, 0x03, 0x00, 0x00, 0x0e, 0x00, 0x00, 0x00, 0x00,
   0x00, 0x00, 0x00, 0x00, 0x00, 0x00, 0x04, 0xc0, 0x03, 0x00, 0x00, 0x1c,
   0x00, 0x00, 0x00, 0x00, 0x00, 0x00, 0x00, 0x00, 0x00, 0x00, 0x06, 0xc0,
   0x03, 0x00, 0x00, 0x38, 0x07, 0x00, 0x00, 0x00, 0x00, 0x00, 0x00, 0x00,
   0x00, 0x00, 0x07, 0xc0, 0x03, 0x00, 0x00, 0x00, 0x06, 0x00, 0x00, 0x00,
   0x00, 0x00, 0x00, 0x00, 0x00, 0x00, 0x03, 0xc0, 0x83, 0x0f, 0x1f, 0x7e,
   0xf6, 0x00, 0x7f, 0x8f, 0x87, 0x1f, 0x1e, 0x0e, 0xfe, 0x77, 0x38, 0xc0,
   0x83, 0x0f, 0x1f, 0xff, 0xf3, 0x80, 0x7f, 0x8f, 0xc7, 0x3f, 0x1e, 0x0e,
   0xfe, 0x77, 0x38, 0xc0, 0x83, 0x0f, 0x9f, 0xff, 0xf3, 0xc0, 0x7f, 0x8f,
   0xe7, 0x7f, 0x3e, 0x0e, 0xfe, 0x77, 0x38, 0xc0, 0x83, 0x9f, 0x9f, 0xef,
   0xf3, 0xc0, 0x07, 0x8f, 0xf7, 0xf9, 0x7e, 0x0e, 0xf0, 0x70, 0x38, 0xc0,
   0x83, 0x9f, 0x9f, 0xc7, 0xf3, 0xc0, 0x03, 0xff, 0xf7, 0xf0, 0xfe, 0x0e,
   0xf0, 0x70, 0x38, 0xc0, 0x83, 0xff, 0x9f, 0x83, 0xf3, 0xc0, 0x01, 0xff,
   0xf7, 0xf0, 0xfe, 0x0f, 0xf0, 0xf0, 0x3c, 0xc0, 0x83, 0xff, 0x9f, 0xc7,
   0xf3, 0xc0, 0x03, 0xff, 0xf7, 0xf0, 0xee, 0x0f, 0xf0, 0xf0, 0x3c, 0xc0,
   0x83, 0xff, 0x9f, 0xef, 0xf3, 0xc0, 0x07, 0x8f, 0xf7, 0xf9, 0xce, 0x0f,
   0xf0, 0xf0, 0x3f, 0xc0, 0x83, 0xf3, 0x9c, 0xff, 0xf1, 0xc0, 0x7f, 0x8f,
   0xe7, 0x7f, 0x8e, 0x0f, 0xf0, 0xf0, 0x3f, 0xc0, 0x83, 0xf3, 0x1c, 0xff,
   0xf0, 0x80, 0x7f, 0x8f, 0xc7, 0x3f, 0x0e, 0x0f, 0xf0, 0xe0, 0x1f, 0xc0,
   0x83, 0xf3, 0x1c, 0x7e, 0xf0, 0x00, 0x7f, 0x8f, 0x87, 0x1f, 0x0e, 0x0e,
   0xf0, 0xc0, 0x0f, 0xc0, 0x03, 0x00, 0x00, 0x00, 0x00, 0x00, 0x00, 0x00,
   0x00, 0x00, 0x00, 0x00, 0x00, 0x00, 0x00, 0xc0, 0x03, 0x00, 0x00, 0x00,
   0x00, 0x00, 0x00, 0x00, 0x00, 0x06, 0x00, 0x00, 0x00, 0x00, 0x00, 0xc0,
   0x03, 0x00, 0x00, 0x00, 0x00, 0x00, 0x00, 0x00, 0x00, 0x06, 0x00, 0x00,
   0x00, 0x00, 0x00, 0xc0, 0x03, 0x00, 0x00, 0x00, 0x00, 0x00, 0x00, 0x00,
   0x00, 0x00, 0x00, 0x00, 0x00, 0x00, 0x00, 0xc0, 0x03, 0x00, 0x00, 0x00,
   0x00, 0x00, 0x00, 0x00, 0x00, 0x00, 0x00, 0x00, 0x00, 0x00, 0x00, 0xc0,
   0x03, 0x00, 0x00, 0x00, 0x00, 0x00, 0x00, 0x00, 0x00, 0x00, 0x00, 0x00,
   0x00, 0x00, 0x00, 0xc0, 0x03, 0x00, 0x00, 0x00, 0x00, 0x00, 0x00, 0x00,
   0x00, 0x00, 0x00, 0x00, 0x00, 0x00, 0x00, 0xc0, 0x03, 0x00, 0x00, 0x00,
   0x00, 0x00, 0x00, 0x00, 0x00, 0x00, 0x00, 0x00, 0x00, 0x00, 0x00, 0xc0,
   0x03, 0x00, 0x00, 0x00, 0x00, 0x00, 0x00, 0x00, 0x00, 0x00, 0x00, 0x00,
   0x00, 0x00, 0x00, 0xc0, 0x03, 0x00, 0x00, 0x00, 0x00, 0x00, 0x00, 0x00,
   0x00, 0x00, 0x00, 0x00, 0x00, 0x00, 0x00, 0xc0, 0x03, 0x00, 0x00, 0x00,
   0x00, 0x00, 0x00, 0x00, 0x00, 0x00, 0x00, 0x00, 0x00, 0x00, 0x00, 0xc0,
   0x03, 0x00, 0x00, 0x00, 0x00, 0x00, 0x00, 0x00, 0x00, 0x00, 0x00, 0x00,
   0x00, 0x00, 0x00, 0xc0, 0x03, 0x00, 0x00, 0x00, 0x00, 0x00, 0x00, 0x00,
   0x00, 0x00, 0x00, 0x00, 0x00, 0x00, 0x00, 0xc0, 0x03, 0x00, 0x00, 0x00,
   0x00, 0x00, 0x00, 0x00, 0x00, 0x00, 0x00, 0x00, 0x00, 0x00, 0x00, 0xc0,
   0x03, 0x00, 0x00, 0x00, 0x00, 0x00, 0x00, 0x00, 0x00, 0x00, 0x00, 0x00,
   0x00, 0x00, 0x00, 0xc0, 0x03, 0x00, 0x00, 0x00, 0x00, 0x00, 0x00, 0x00,
   0x00, 0x00, 0x00, 0x00, 0x00, 0x00, 0x00, 0xc0, 0xff, 0xff, 0xff, 0xff,
   0xff, 0xff, 0xff, 0xff, 0xff, 0xff, 0xff, 0xff, 0xff, 0xff, 0xff, 0xff,
   0xff, 0xff, 0xff, 0xff, 0xff, 0xff, 0xff, 0xff, 0xff, 0xff, 0xff, 0xff,
   0xff, 0xff, 0xff, 0xff };
